<svg xmlns="http://www.w3.org/2000/svg" viewBox="0 0 1024 1024" role="img" aria-label="Life Map Diary logo">
  <path style="fill:#bae5f5;fill-opacity:1;stroke:none" d="m 426.58397,221.59277 c -4.23262,-1.92108 -38.62368,-34.75234 -68.87018,-65.7466 -15.59044,-15.97587 -17.10924,-19.00404 -13.38755,-26.69204 6.97723,-14.41304 45.09144,-36.577406 80.82102,-46.999466 22.5461,-6.57653 33.65332,-8.02573 61.71549,-8.05228 26.95215,-0.0255 29.88855,0.40807 35.66138,5.26559 5.9107,4.97353 5.83862,4.20152 5.83862,62.529406 0,56.59398 -0.0946,57.8333 -4.80101,62.90823 -4.09933,4.42029 -7.92078,5.16138 -19.20165,3.72376 -5.86099,-0.74692 -14.45436,-1.02835 -21.22247,-0.69502 -13.43979,0.66191 -22.16623,3.23892 -36.57832,10.80196 -10.40981,5.46277 -13.45899,5.91406 -19.97533,2.95646 z" />
  <path style="fill:#4684bd;fill-opacity:1;stroke:none" d="m 549.39793,299.64446 c -0.69506,-1.29873 -1.03518,-37.06107 -1.03518,-108.84501 0,-104.402446 0.0454,-106.951786 1.93284,-108.659946 2.45325,-2.22016 4.92985,-1.71215 20.06716,4.1162 21.26473,8.18761 43.08234,21.103876 61.08467,36.162816 10.43957,8.73269 25.74169,24.41654 30.45016,31.20978 l 2.96517,4.27806 0.27591,70.23884 c 0.24842,63.23821 0.11671,70.39804 -1.32143,71.83618 -0.87853,0.87854 -2.16112,1.59734 -2.85018,1.59734 -0.68906,0 -5.26942,-3.39963 -10.17857,-7.55474 -4.90915,-4.15511 -14.10073,-11.80607 -20.42573,-17.00212 -6.325,-5.19606 -13.87936,-11.47142 -16.78746,-13.94526 -2.90811,-2.47383 -5.83311,-4.49606 -6.5,-4.49383 -0.6669,0.002 -3.53909,1.91473 -6.38265,4.25 -17.00837,13.96813 -31.78386,26.34271 -38.32989,32.10157 -7.81109,6.87179 -11.15731,8.08748 -12.96482,4.71012 z" />
  <path style="fill:#68a3cf;fill-opacity:1;stroke:none" d="m 275.6613,364.61921 c -4.47234,-2.72695 -6.0871,-6.42913 -8.89204,-20.38696 -2.97234,-14.79084 -4.22733,-48.56401 -2.5697,-69.15353 2.02974,-25.21145 8.60392,-48.93069 20.42349,-73.68663 7.90219,-16.55105 22.51918,-38.89593 27.42887,-41.93028 4.27685,-2.64324 10.93517,-3.4922 15.52047,-1.97891 4.30966,1.42231 80.90332,77.43677 83.85329,83.21918 3.12381,6.12317 2.53202,11.99809 -2.56598,25.47369 -5.47036,14.45983 -8.17421,18.49408 -16.53866,24.67635 -3.55206,2.62537 -8.48329,6.32407 -10.95829,8.21933 -4.10809,3.14582 -22.81142,16.63037 -45.35203,32.69748 -4.86862,3.47039 -16.34362,11.86482 -25.5,18.65431 -9.15639,6.78948 -18.31754,13.20198 -20.35813,14.25 -4.75759,2.44343 -10.43001,2.42228 -14.49129,-0.054 z" />
  <path style="fill:#4586be;fill-opacity:1;stroke:none" d="m 671.36275,385.65778 c -4.125,-0.97687 -12,-2.72551 -17.5,-3.88587 -5.5,-1.16036 -17.26778,-3.69767 -26.15062,-5.63846 -8.88284,-1.94079 -25.08284,-5.37064 -36,-7.62189 -10.91716,-2.25126 -21.74988,-4.9265 -24.07271,-5.94499 -8.96165,-3.92939 -10.49419,-12.29532 -4.90202,-26.75938 1.85605,-4.80066 3.91009,-10.52847 4.56452,-12.72847 2.6019,-8.74676 4.30824,-11.30433 11.40929,-17.101 3.93335,-3.21083 9.62654,-8.13632 12.65154,-10.94554 3.025,-2.80921 7.63405,-6.60927 10.24233,-8.44457 5.66462,-3.98588 6.36464,-3.80129 15.706,4.14146 3.46041,2.94231 8.82516,7.31612 11.92166,9.71959 3.09651,2.40346 9.17653,7.30276 13.51118,10.88734 8.94987,7.40119 14.59395,9.65713 21.61079,8.63786 6.04389,-0.87794 8.95017,-2.4818 13.37782,-7.38268 6.74757,-7.46875 6.25216,-0.82865 6.54519,-87.72727 0.0804,-23.82841 0.19101,-25.27154 2.01259,-26.24642 1.06015,-0.56738 2.64281,-0.75712 3.51702,-0.42166 4.04702,1.55299 15.63894,33.0964 20.01646,54.46788 5.18721,25.32447 5.44519,68.87901 0.55331,93.41501 -2.6728,13.40588 -8.45732,31.52213 -11.16352,34.96251 -5.01078,6.37017 -14.09054,7.87523 -27.85083,4.61655 z" />
  <path style="fill:#1a5790;fill-opacity:1;stroke:none" d="m 366.79339,527.64938 c -6.23004,-1.51048 -9.74074,-4.79359 -20.39262,-19.07066 -21.6621,-29.0344 -37.35165,-54.25842 -50.69369,-81.5 -7.55294,-15.42148 -8.32689,-17.54635 -8.33519,-22.88398 -0.0122,-7.87423 1.62825,-12.88644 5.3811,-16.44093 5.26952,-4.991 54.32617,-40.91493 89.80914,-65.76678 13.02492,-9.12249 23.50192,-6.36201 28.8132,7.59169 3.02944,7.9589 11.22186,23.18801 18.02114,33.5 8.01789,12.16019 10.00665,14.73175 24.33796,31.47022 12.01918,14.038 15.60612,19.96579 15.61893,25.8119 0.0141,6.41219 -2.17578,10.52148 -10.73083,20.1367 -24.64417,27.69816 -32.22546,36.1382 -36.90131,41.08118 -2.86151,3.025 -6.70029,7.34693 -8.53061,9.60429 -10.03049,12.37072 -31.44118,34.43745 -34.2558,35.30541 -5.12509,1.58045 -8.91609,1.94294 -12.14142,1.16096 z" />
  <path style="fill:#1b4679;fill-opacity:1;stroke:none" d="m 592.2157,540.54627 c -2.00588,-0.34058 -8.49736,-3.73511 -14.4255,-7.54339 -21.17451,-13.60266 -35.1029,-22.43956 -46.69771,-29.62748 -6.47364,-4.01317 -16.59864,-10.44865 -22.5,-14.30107 -5.90136,-3.85241 -15.11122,-9.79414 -20.46637,-13.20384 -11.17445,-7.11493 -13.75404,-10.41289 -13.75963,-17.59143 -0.005,-6.20638 1.76853,-9.47786 9.86234,-18.19387 14.32554,-15.4268 21.78613,-23.97376 43.14984,-49.4331 6.0711,-7.23499 10.94533,-10.18096 17.9029,-10.82049 4.53445,-0.41679 23.47169,3.12305 71.58118,13.3803 11.55,2.46254 27.75,5.84926 36,7.52605 15.37781,3.1255 19.25714,4.48942 23.34501,8.20775 3.64156,3.31236 5.15499,7.06712 5.15499,12.78935 0,4.41237 -0.9041,7.02769 -5.63467,16.29966 -3.09906,6.07421 -9.00647,16.66901 -13.12757,23.54401 -17.03009,28.41034 -50.15773,73.34242 -56.5198,76.65964 -4.25095,2.21646 -9.37766,3.06983 -13.86501,2.30791 z" />
  <path style="fill:#0e2a50;stroke:none;fill-opacity:1" d="m 480.50691,651.14773 c -3.15544,-0.8474 -6.93136,-3.46959 -13.70149,-9.51504 -19.59526,-17.49773 -68.01518,-68.16737 -74.51332,-77.97541 -2.40546,-3.6307 -2.92935,-5.47272 -2.92935,-10.29966 0,-3.23302 0.65754,-7.14976 1.4612,-8.70386 0.80366,-1.55411 5.35728,-7.04426 10.11917,-12.20034 4.76188,-5.15609 10.7377,-11.8497 13.27958,-14.8747 2.54189,-3.025 10.38601,-11.64774 17.43139,-19.16165 13.66925,-14.57827 17.03277,-16.83835 25.05942,-16.83835 5.93605,0 10.02845,2.31088 56.64924,31.98853 8.525,5.42681 22.83506,14.51194 31.80013,20.1892 28.22418,17.87333 28.56072,18.11582 30.98021,22.32227 1.86497,3.2424 2.23811,5.16209 1.97009,10.13557 -0.29506,5.47527 -0.80129,6.74561 -4.70392,11.80415 -5.92964,7.68591 -42.57207,45.16212 -58.31422,59.64112 -16.20047,14.90055 -21.55444,16.98841 -34.58813,13.48817 z" />
  <path style="fill:#0c2950;fill-opacity:1;stroke:none;stroke-width:0;stroke-dasharray:none" d="M 595.15252,436.44517 270.98434,72.600164" />
</svg>
